<?xml version="1.0" standalone="no"?><!DOCTYPE svg PUBLIC "-//W3C//DTD SVG 1.1//EN" "http://www.w3.org/Graphics/SVG/1.1/DTD/svg11.dtd">
<svg class="icon" viewBox="0 0 1024 1024" version="1.1" xmlns="http://www.w3.org/2000/svg" p-id="5846"
     width="32" height="32">
    <path d="M39.586623 392.734918s130.554823 29.512393 152.063855 52.522055 11.004621 36.015124 11.004621 36.015124 26.511133 3.50147 25.510713 14.506091-4.00168 20.008402-11.504831 26.010923c0 0 13.505671 3.00126 14.005881 11.004621s0 29.512393-23.009662 58.024365-102.04285 81.534238-102.04285 81.534238 21.008822-100.04201 58.024365-131.055032c0 0-129.054193 21.008822-138.057973 20.508612 0 0 59.024786-78.532978 121.551042-78.532978 0 0-41.017224-6.002521-107.545161-90.538019zM784.399386 738.880272l-3.00126 2.50105s-9.003781 38.015964 37.015544 66.527937 104.04369 62.026046 104.04369 62.026046-37.015544-52.522055-62.526256-89.037389-42.517854-60.525416-58.524576-55.523315-17.007142 13.505671-17.007142 13.505671zM806.908839 672.852546s3.50147 43.018064 56.523735 40.016803l53.022265-3.00126 65.027307-13.005461s-66.527937-30.012603-100.54222-40.016804-53.522475-14.005881-66.027727 0.50021-8.003361 15.506512-8.00336 15.506512zM512.455191 275.685766c-0.670281-48.020165 4.00168-133.386012 6.662798-167.400295 2.671122-34.014283-48.680442-66.698008-48.680442-66.698008l-174.073097-1.330558c-8.003361 3.331399-50.691286 19.33812-50.021005 71.359965 0.660277 52.021845 5.332239 111.37677 6.662798 157.396094 1.340563 46.019325-9.33392 125.392655-8.663638 169.41114 0.660277 44.018484 62.026046 72.030247 62.026046 72.030247s98.04117 6.662798 152.724132-1.340563c54.692967-8.003361 61.365769-64.687164 61.365769-64.687164v-8.673642c0-8.673642-7.343084-112.047051-8.003361-160.067216z m-184.747579 154.064696s8.003361-120.550622 7.00294-172.072257-8.003361-139.558604-8.003361-139.558604l115.048312 1.00042s-7.002941 118.049572-8.503571 145.561124 11.004621 162.568266 11.004621 162.568266l-116.548941 2.501051zM858.188372 480.263673c20.966804-43.206143 63.477656-117.382291 81.130068-146.578551 17.661416-29.192258-13.542687-81.455205-13.542687-81.455205l-154.93506-79.362326c-8.647631-0.61826-53.976666-5.486304-76.740225 41.295341-22.772563 46.777643-45.253003 101.908794-64.731182 143.62331-19.468175 41.719519-64.652149 107.845287-83.821198 147.475929-19.178053 39.62664 23.071688 92.212722 23.071688 92.212722s84.606528 49.981989 137.059554 67.388298c52.46103 17.411311 83.880223-30.238698 83.880223-30.238698l3.895636-7.750255c3.895636-7.750255 43.757375-103.408423 64.733183-146.610565z m-234.25837 54.686964s61.288736-104.116721 83.532077-150.60024c22.24334-46.482519 55.523315-128.287871 55.523315-128.287871l102.344977 52.560071S806.058482 410.953568 792.36273 434.861608c-13.695751 23.907039-63.174528 150.19507-63.174528 150.19507l-105.2582-50.106041z"
          fill="#1296db"></path>
    <path d="M715.3704 683.857167l-156.065536-72.530458-12.505251-1.00042-18.507772 2.000841c-3.711559 0.401168-7.887312 1.838772-12.189118 3.863622 0.717301-11.820964 1.417595-22.062264 2.014846-29.704474 2.671122-34.014283-48.680442-66.698008-48.680442-66.698008l-174.073097-1.330558c-8.003361 3.331399-50.691286 19.33812-50.021005 71.359965 0.660277 52.021845 5.332239 111.37677 6.662798 157.396094 1.340563 46.019325-9.33392 125.392655-8.663638 169.41114 0.660277 44.018484 62.026046 72.030247 62.026046 72.030247s98.04117 6.662798 152.724132-1.340563c54.692967-8.003361 61.365769-64.687164 61.365769-64.687164v-8.673642c0-1.829768-0.327137-7.88231-0.849357-16.728024 18.596809 10.642469 42.138695 22.807577 68.207642 33.234956 62.526256 25.010502 84.535498-30.012603 84.535498-30.012603 20.508612-69.028987 41.017224-98.54138 64.026887-141.059234s-20.008402-75.531717-20.008402-75.531717z m-388.663209 224.094102s8.003361-120.550622 7.002941-172.072257-8.003361-139.558604-8.003361-139.558604l115.048312 1.00042s-7.002941 118.049572-8.503571 145.561124 11.004621 162.568266 11.004621 162.568266l-116.548942 2.501051z m276.115948-52.522056c-6.388683-8.943756-70.420571-38.188036-89.310504-46.682603-0.173073-3.427439-0.340143-6.830868-0.499209-10.189278 15.069328-22.755556 42.789968-101.694704 42.789968-101.694704 25.010502 17.507352 102.04285 47.519955 102.04285 47.519955-33.013863 35.014703-55.023105 111.046631-55.023105 111.04663z"
          fill="#1296db"></path>
</svg>
