<?xml version="1.0" standalone="no"?><!DOCTYPE svg PUBLIC "-//W3C//DTD SVG 1.1//EN" "http://www.w3.org/Graphics/SVG/1.1/DTD/svg11.dtd">
<svg class="icon" viewBox="0 0 1024 1024" version="1.1" xmlns="http://www.w3.org/2000/svg"
     width="13" height="13">
    <path d="M907.46331787 461.47387695c-2.1258545-88.34655762-45.23620606-121.96472168-82.01843261-133.5333252-36.78222656-11.56860352-113.56018067 4.20227051-155.63232422 12.60681153-42.07214356 8.40454102-182.97180176 3.1640625-245.01708985-27.33947753-62.04528809-30.50354004-169.27734375-4.20227051-169.27734375-4.20227052s-174.56726075 52.55310059-132.49511718 229.24621583c67.28576661 200.8190918 356.45141602 177.73132325 531.01867675 152.46826171 174.56726075-25.26306153 255.54748536-140.94909668 253.42163086-229.24621582z m-53.09692383 53.5913086c-24.71923828 57.84301758-106.19384766 117.26806641-254.45983886 134.5715332-148.26599122 17.35290528-218.17199708 0-235.03051758-6.328125-16.80908203-6.328125-173.47961426-40.49011231-177.73132325-158.25256348 3.1640625-57.84301758 24.17541504-78.35998536 24.17541505-78.35998535s32.08557129-64.12170411 89.92858886-52.05871582c57.84301758 12.11242676 165.61889648 53.09692383 208.18542481 61.50146485 42.56652833 8.40454102 154.59411622 3.65844727 195.03479003-12.60681153s96.75109864-21.55517578 127.74902344 1.58203125 46.86767578 52.1081543 22.1484375 109.95117188z"
          fill="#1890ff"/>
    <path d="M297.24420166 463.79748535h38.56201172c18.29223633 0 31.24511719 0.24719239 38.75976563 2.81799317 7.56408692 2.57080078 11.32141114 10.03601075 11.32141112 18.24279784v46.07666016c0 6.37756348-3.26293945 11.42028809-9.83825683 15.22705078-6.57531739 3.8067627-17.55065918 5.68542481-32.92602539 5.68542481h-45.92834473l0.04943848-88.04992676z m61.10595703 64.1217041c3.60900879-0.93933106 5.38879395-3.31237793 5.38879394-7.11914062v-26.59790039c0-3.1640625-1.58203125-5.24047852-4.69665526-6.17980958-3.11462403-0.93933106-19.18212891-1.43371582-22.84057618-1.53259277h-16.11694336v42.86315919c5.78430176-0.04943848 34.65637208-0.49438477 38.26538086-1.43371583zM419.7033081 464.14355469v60.71044922c0 2.1258545 0.98876953 2.71911622 2.9663086 3.95507812 1.97753906 1.23596192 14.63378906 0.84045411 17.00683593 0.88989258h1.38427735a1.82922363 1.82922363 0 0 0 0.59326172-0.09887695c2.37304688-0.14831543 15.02929688 0.14831543 17.00683593-1.13708497 1.97753906-1.28540039 2.96630859-2.07641602 2.9663086-4.44946288v-59.86999512h23.53271484v56.45874023c0 9.78881836-5.68542481 23.8293457-12.90344238 27.38891602-7.16857911 3.55957031-16.95739747 4.30114747-29.21813965 4.30114745-14.63378906 0-25.70800781-0.74157715-33.1237793-4.30114745-7.46520997-3.55957031-13.2989502-16.75964356-13.29895019-24.81811524v-59.02954101h23.08776855zM492.9216919 463.50085449h47.21374511c10.72814942 0 20.36865234 1.53259278 29.02038575 4.54833984a18.78662109 18.78662109 0 0 1 12.95288086 18.04504395c0 4.89440918 0.74157715 11.07421875-1.82922364 13.84277344-2.52136231 2.71911622-3.11462403 2.27416992-6.1303711 3.46069336a35.00244141 35.00244141 0 0 1-7.02026367 1.6809082c7.26745606 2.22473145 8.30566406 4.74609375 11.56860352 7.61352539 3.21350098 2.86743164 4.8449707 7.26745606 4.8449707 13.24951172a22.69226075 22.69226075 0 0 1-9.6899414 19.57763672c-6.47644043 4.30114747-17.20458984 6.47644043-32.33276368 6.47644042h-48.64746093l0.04943848-88.49487303z m64.27001953 35.0024414c3.06518555-1.28540039 4.59777833-4.15283203 4.59777831-8.55285644 0-2.1258545-0.93933106-4.8449707-2.86743164-6.08093262a14.48547364 14.48547364 0 0 0-7.95959472-1.82922363h-36.2878418v17.35290527c7.76184083 0 39.4519043 0.39550781 42.51708985-0.88989258z m-1.77978516 34.45861817c4.00451661-1.03820801 5.98205567-3.95507813 5.98205566-8.6517334 0-4.40002442-2.17529297-5.04272461-6.47644042-6.13037109-4.30114747-1.08764648-33.1237793 0.24719239-40.19348145-0.14831543v14.43603516c7.71240234 0 36.68334961 1.58203125 40.68786621 0.49438476zM591.0076294 463.50085449h47.21374511c10.72814942 0 20.36865234 1.53259278 29.02038575 4.54833984a18.78662109 18.78662109 0 0 1 12.95288086 18.04504395c0 4.89440918 0.6427002 11.07421875-1.87866211 13.84277344-2.52136231 2.71911622-3.01574708 2.27416992-6.08093263 3.46069336a35.00244141 35.00244141 0 0 1-7.02026367 1.6809082c7.26745606 2.22473145 8.30566406 4.74609375 11.56860352 7.61352539 3.21350098 2.86743164 4.8449707 7.26745606 4.8449707 13.24951172a22.69226075 22.69226075 0 0 1-9.68994141 19.57763672c-6.47644043 4.30114747-17.20458984 6.47644043-32.33276367 6.47644042h-48.64746093l0.04943848-88.49487303z m64.22058105 35.0024414c3.06518555-1.28540039 4.59777833-4.15283203 4.59777832-8.55285644 0-2.1258545-0.93933106-4.8449707-2.86743164-6.08093262a14.48547364 14.48547364 0 0 0-7.95959473-1.82922363h-36.2878418v17.35290527c7.76184083 0 39.4519043 0.39550781 42.51708985-0.88989258z m-1.77978516 34.45861817c4.00451661-1.03820801 5.98205567-3.95507813 5.98205567-8.6517334 0-4.40002442-2.17529297-5.04272461-6.47644044-6.13037109-4.30114747-1.08764648-33.1237793 0.24719239-40.19348144-0.14831543v14.43603516c7.71240234 0 36.73278809 1.58203125 40.68786621 0.49438476zM691.91156006 486.63806152c0-8.15734864 4.20227051-14.93041992 12.55737304-18.3416748 8.35510254-3.36181641 18.48999023-5.09216309 30.40466309-5.09216309l4.79553223 0.09887696 4.79553223 0.24719238c8.35510254 0.74157715 15.96862793 2.71911622 22.84057617 5.98205567a17.99560547 17.99560547 0 0 1 10.28320312 17.05627441v36.28784179a23.87878418 23.87878418 0 0 1-10.28320312 20.22033692c-6.87194825 4.74609375-12.90344239 9.19555664-28.57543945 9.19555663-15.96862793 0-32.13500977-1.63146973-38.01818849-6.97082519-5.88317872-5.33935547-8.84948731-15.62255859-8.8494873-22.44506836l0.04943848-36.23840332z m23.18664551 39.50134278c0 2.27416992 1.13708497 5.04272461 3.41125488 6.22924804 2.27416992 1.18652344 15.32592773 0.74157715 18.04504395 0.74157716h0.59326172c2.62023926-0.09887695 13.44726563 0.34606934 15.67199706-0.79101563 2.22473145-1.13708497 3.31237793-3.90563965 3.31237794-6.17980957v-34.01367188c0-2.27416992-1.13708497-5.04272461-3.31237794-6.17980956-2.22473145-1.13708497-13.05175781-0.69213867-15.67199706-0.79101563h-0.59326172c-2.76855469 0-15.77087403-0.49438477-18.04504395 0.64270019-2.27416992 1.13708497-3.41125489 3.95507813-3.41125488 6.27868653v34.06311035z"
          fill="#1890ff"/>
</svg>
